<svg xmlns="http://www.w3.org/2000/svg" width="24" height="24" viewBox="0 0 24 24">
  <g id="Artboard" fill="none" fill-rule="evenodd" stroke="none" stroke-width="1">
    <g id="language-icon" fill="#000" transform="translate(2 2)">
      <path id="Shape" d="M14.499 17.895l-1.884-1.885 1.911-2.55 3.218 1.287a8.58 8.58 0 0 1-3.245 3.148zm-5.976.825v-4.515l-.947-.947H2.39a8.463 8.463 0 0 1-.497-2.841c0-.348.027-.69.068-1.027l1.301.867.948.06 3.04-1.52 1.43 2.144 1.213.322 5.682-2.84.397-1.317-2.687-4.705c3.29 1.181 5.653 4.323 5.653 8.016 0 .908-.145 1.782-.41 2.604l-3.972-1.59-1.11.311-2.84 3.788.087 1.238 1.884 1.883a8.515 8.515 0 0 1-2.161.288c-.652 0-1.283-.08-1.894-.22zm-5.188-3.568H6.63v2.888a8.578 8.578 0 0 1-3.294-2.888zm7.082-13.258c.138 0 .272.014.41.02l3.005 5.262-4.038 2.02-1.43-2.146-1.213-.322-3.295 1.648-1.413-.941c1.212-3.23 4.324-5.541 7.974-5.541zm0-1.894C4.673 0 0 4.672 0 10.417c0 5.743 4.673 10.416 10.417 10.416s10.416-4.673 10.416-10.416C20.833 4.672 16.161 0 10.417 0z"/>
    </g>
  </g>
</svg>
